<svg id="Layer_1" data-name="Layer 1" xmlns="http://www.w3.org/2000/svg" viewBox="0 0 500 160"><path d="M84.2,97.07a6.91,6.91,0,0,1-1.92-2,.51.51,0,0,0-.17-.25l-.22-.17c-.18-.08-.39-.72-.62-1.89-.19-.94-.33-1.93-.44-3a17.17,17.17,0,0,1-.1-2.55l.44-3.33.36-2.52.91-3.73L80,77.51a1,1,0,0,1-.76-.28,1.09,1.09,0,0,1-.4-.59A3.18,3.18,0,0,1,79,75.19c.21-.66.42-1,.62-1a4.94,4.94,0,0,0,1-.13,14.77,14.77,0,0,0,2.61-.7,1.47,1.47,0,0,0,.64-1.11,7.49,7.49,0,0,1,.37-1.2c.14-.34.27-.7.4-1.09s.18-.66.34-1.2.37-1.16.64-1.87q.09-.19.36-1a4.55,4.55,0,0,1,.77-1.34,2.9,2.9,0,0,1,.85-.69,3.49,3.49,0,0,1,1.13-.44,2.49,2.49,0,0,1,1.83.25,2.73,2.73,0,0,1,.77,1.13,2.59,2.59,0,0,1-.23,1.33,16.81,16.81,0,0,1-.8,2.12c-.33.8-.57,1.43-.72,1.91a2.41,2.41,0,0,0-.36,1.3c.06.27.34.36.85.26a18.6,18.6,0,0,0,2.7-.9,4.36,4.36,0,0,1,.81-.23,2.38,2.38,0,0,1,2.17.43,3.5,3.5,0,0,1,1,1.94c.11.55,0,.92-.36,1.12a11.22,11.22,0,0,1-2.46.67,26,26,0,0,1-3.83,1.06c-.24,0-.5.11-.79.19a5.6,5.6,0,0,0-.88.33,1.36,1.36,0,0,0-.61.48,3.25,3.25,0,0,0-.29.86A10,10,0,0,0,87,79.18c-.32,1.25-.54,2-.65,2.27a61.34,61.34,0,0,0-.52,9.71,6,6,0,0,0,.12.89,1.2,1.2,0,0,0,.71,1,4,4,0,0,0,2-.06,11.84,11.84,0,0,0,3-1,26.63,26.63,0,0,0,2.39-1.82l.86-.75.54-.51c.1-.34.37-.36.82,0A4.24,4.24,0,0,1,97.42,90a4.44,4.44,0,0,1,0,2,5,5,0,0,1-1.71,2.2,14.37,14.37,0,0,1-3.54,2.48A15.42,15.42,0,0,1,88.48,98a9,9,0,0,1-1.86.18A4.23,4.23,0,0,1,84.2,97.07Z"/><path d="M118.49,91.4a3.39,3.39,0,0,1-3-.8,6.38,6.38,0,0,1-1.84-3.73,18.17,18.17,0,0,1-.11-5.79c.06-.3.15-.67.27-1.1s.12-.63,0-.61-.5.37-.9,1a30.09,30.09,0,0,0-3.73,6.33q-1.37,3.18-1.06,4.71a1.16,1.16,0,0,1-.3,1.1,2,2,0,0,1-1.08.58,1.8,1.8,0,0,1-.8,0,6.08,6.08,0,0,1-2.54-1.73,5.5,5.5,0,0,1-1.32-3.25,53.92,53.92,0,0,1-.57-7.32q0-3.21.64-9.27c0-.13.19-1.2.53-3.23q.8-5.53.94-6a9.68,9.68,0,0,0,.7-2.8,12.87,12.87,0,0,0,.27-2.78,1.91,1.91,0,0,1,.08-1c.12-.32.19-.53.22-.62.23-1.06.51-1.63.82-1.69a4,4,0,0,1,1.82.34,2.81,2.81,0,0,1,1.57,1,4.09,4.09,0,0,1,.82,1.68,5.82,5.82,0,0,1-.06,2.18,35,35,0,0,1-.92,3.64,60.89,60.89,0,0,0-1.63,8.46q-.33,2-.65,5.69a25.36,25.36,0,0,0-.18,4.32.36.36,0,0,0,.49.33c.32-.06.6-.36.86-.9a3.73,3.73,0,0,1,.59-1,8.94,8.94,0,0,0,.76-1.13,33.69,33.69,0,0,1,2.22-3.62c.85-1.23,1.56-1.9,2.11-2q2.11-.4,3.7,2a2,2,0,0,1,.45.4,1.27,1.27,0,0,0,.3.31c.24.16.43.63.59,1.41a16.05,16.05,0,0,1,0,5,17.63,17.63,0,0,0,.06,3.66c.1.51.28.73.56.68.1-.1.31-.29.62-.55l1.1-1a4.57,4.57,0,0,1,1.91-1.18,1.18,1.18,0,0,1,1,.15,1.23,1.23,0,0,1,.45.74,3.43,3.43,0,0,1-.14,1.31,5.37,5.37,0,0,0-.2,1l.06.29c0,.16-.4.77-1.28,1.85a7.68,7.68,0,0,1-2,1.92A5.46,5.46,0,0,1,118.49,91.4Z"/><path d="M129.14,87.4a3,3,0,0,1-1-.54,1.47,1.47,0,0,0-.4-.63c-.23-.26-.45-.49-.65-.69-.38-.26-.37-1.32,0-3.19s1-4.12,1.78-6.72a7.72,7.72,0,0,0,.67-1.42,5,5,0,0,1,.54-1.14.7.7,0,0,1,.09-.48.56.56,0,0,1,.37-.29l.28-1a14.76,14.76,0,0,1,1.8-3,20.18,20.18,0,0,1,2.7-3.35,4.3,4.3,0,0,1,2.26-1.24,3.69,3.69,0,0,1,2.57.35l1.86,1c1.37.74,2.15,1.18,2.34,1.31L147,67.9,146.57,71a9.65,9.65,0,0,0,.06,3.1,7.82,7.82,0,0,0,2.07,3.94,2.46,2.46,0,0,0,1,.84,3.07,3.07,0,0,0,1.42.21c.89,0,1.41.33,1.55,1a3.33,3.33,0,0,1-.09,2,2.05,2.05,0,0,1-.95,1,12.37,12.37,0,0,1-1.27.37,5.88,5.88,0,0,1-3.3-.26A7.29,7.29,0,0,1,144,80.85a12.7,12.7,0,0,1-1.58-2.38,11.78,11.78,0,0,1-1,1.79q-4.85,7.33-8.61,8.07a4.24,4.24,0,0,1-2.43-.19A3.35,3.35,0,0,0,129.14,87.4Zm6.68-7.63c.17-.19.35-.42.54-.68s.4-.54.63-.83c.92-1.12,1.62-2.05,2.11-2.78a18.88,18.88,0,0,0,1.42-2.57l.87-2.38A5.93,5.93,0,0,0,140,69a1.46,1.46,0,0,0-1-.26c-.79.16-1.63,1-2.53,2.68a46.65,46.65,0,0,0-3,7.16,12.15,12.15,0,0,0-.63,2.42c-.12.82-.2,1.35-.23,1.61Q133.55,82.54,135.82,79.77Z"/><path d="M158.1,86.46a4.16,4.16,0,0,1-1.55-2.72c-.06-.32-.13-.83-.19-1.55a12.4,12.4,0,0,0,0-1.72,3.39,3.39,0,0,1,.28-1.65.57.57,0,0,0,.08-.26.26.26,0,0,0-.18-.27,6.3,6.3,0,0,1,.11-2.22,7.08,7.08,0,0,1,.13-.89c.06-.29.11-.48.13-.57a.49.49,0,0,1-.19-.33.82.82,0,0,1,.21-.65,2.74,2.74,0,0,0,.37-.63.4.4,0,0,0-.13-.46c-.12-.18.08-1.14.6-2.87.3-1.12.46-1.75.48-1.87a9.85,9.85,0,0,1,.42-2.35c.35-1.45.63-2.55.85-3.29.31-.26.15-.37-.49-.33a14.4,14.4,0,0,0-2.31.4,29.28,29.28,0,0,1-3,.39,5.2,5.2,0,0,1-1.81-.16,1.45,1.45,0,0,1-.62-1,2.14,2.14,0,0,1,.28-1.52,2,2,0,0,1,1.24-1c1-.24,2.56-.69,4.63-1.34l2.95-.83,0-1c.13-.39.25-.73.38-1A2.44,2.44,0,0,0,161,54a5,5,0,0,0,0-.91,8.1,8.1,0,0,0,.39-1.3,6.26,6.26,0,0,0,.19-1.93c.29-.83.55-1.63.78-2.39s.39-1.21.44-1.34a3,3,0,0,1,2-2.06,2.91,2.91,0,0,1,1.56.18,8.43,8.43,0,0,1,1.37.71,1.53,1.53,0,0,1,.63,1,3.74,3.74,0,0,1-.22,1.63,16.78,16.78,0,0,0-.34,2,9.49,9.49,0,0,0-.59,1.61,7,7,0,0,0-.31,1.87c0,.21-.1.5-.19.86a2.58,2.58,0,0,1-.21.65.36.36,0,0,1-.25.14.73.73,0,0,0,.33.43,1.22,1.22,0,0,0,.61,0,5.81,5.81,0,0,0,.73-.21,11,11,0,0,1,1.07-.27,6.58,6.58,0,0,0,1-.38,3.42,3.42,0,0,1,.83-.29,2.22,2.22,0,0,1,.74,0,2.29,2.29,0,0,1,.56,1.3,4.36,4.36,0,0,1,0,1.48,1.36,1.36,0,0,1-.42,1c-.18.08-.59.29-1.22.61a9.73,9.73,0,0,1-2.11.79l-3.06.91-.6,2.2c-.18.53-.33,1-.44,1.49a3.56,3.56,0,0,1-.26.85,3.4,3.4,0,0,1-.24,1.27c-.2.65-.34,1.17-.42,1.55a13.51,13.51,0,0,1-.39,1.76l-.33,1.14c-.11,0-.18.06-.18.13a.68.68,0,0,0,0,.27l.21.44a.85.85,0,0,1-.18.65,1.32,1.32,0,0,0-.36.5,2.85,2.85,0,0,0-.18.47.44.44,0,0,1,.18.27,2.26,2.26,0,0,1-.21,1.14,8.73,8.73,0,0,1-.23,3.16,12.42,12.42,0,0,0,.39,1.33c.08.19.19.25.34.18l.3-.06,1.28-.31c.25-.18.38.1.38.84a23.44,23.44,0,0,1-.39,3.44,17.64,17.64,0,0,1-1.38,2.75c-.51.81-.87,1.24-1.06,1.28A4.56,4.56,0,0,1,158.1,86.46Z"/><path d="M175.9,53.91a1.45,1.45,0,0,1-1.83-.86l0-.24a2.36,2.36,0,0,1,.33-1.41l.49-1.2c.11-.27.36-.91.73-1.92a10.88,10.88,0,0,0,.64-2.33,1.23,1.23,0,0,1,0-.42,2.57,2.57,0,0,1-2.2-.3,2.5,2.5,0,0,1-1.14-1.73,4,4,0,0,1,.2-2.12,5.5,5.5,0,0,1,1.25-2,4.15,4.15,0,0,1,2-1.14,6,6,0,0,1,1.91.05,4.83,4.83,0,0,1,2,1.51,2.69,2.69,0,0,1,.77,1.86,14.71,14.71,0,0,1-.29,3.79l-.17,1.32c-.09,1.36-.92,3.38-2.47,6,0,.08,0,.16-.13.25a3,3,0,0,1-.47.27l-.69.35Z"/><path d="M184.8,78.93A8.93,8.93,0,0,1,182,78c-.8-.43-1.25-.88-1.34-1.35a.83.83,0,0,1,.47-1l.25-.3a1.4,1.4,0,0,1,.46-.15,1.24,1.24,0,0,1,.59-.09,1.92,1.92,0,0,0,.61,0,8.87,8.87,0,0,0,1.28,0l1.56-.13a9.76,9.76,0,0,0,2.16-.68c.66-.29,1-.53.93-.73s-.22-.28-.59-.49a1.49,1.49,0,0,0-1.08-.22,7.17,7.17,0,0,0-2.14-1.22c-.77-.38-1.51-.77-2.22-1.16s-1.08-.7-1.13-.93l0-.13-.05-.3q-.42.09-1-1A7.77,7.77,0,0,1,180,66a7.88,7.88,0,0,1,.9-4.76A20.55,20.55,0,0,1,184.42,56a16.69,16.69,0,0,1,4.45-3.63,6.54,6.54,0,0,1,2.5-.93,3.5,3.5,0,0,1,1.58-.07l.45-.21a3.12,3.12,0,0,1,2.06.82,7.38,7.38,0,0,1,1.78,1.6,30.46,30.46,0,0,1,.5,3.14c.08.8,0,1.23-.35,1.3a.56.56,0,0,0-.17.09c-.07.06-.09.16-.06.32.11.55-.25,1.25-1.08,2.11a4.82,4.82,0,0,1-2.42,1.52h-.25a2.52,2.52,0,0,1-1.16-.51,1.86,1.86,0,0,1-.94-1.16,3.06,3.06,0,0,1,.52-1.08,13.3,13.3,0,0,0,.91-1.74,2.74,2.74,0,0,0,.19-1.66c0-.19-.13-.31-.28-.34a2.37,2.37,0,0,0-.81.07,18.61,18.61,0,0,0-4.1,3.69,2.86,2.86,0,0,1-.22.59.48.48,0,0,1-.35.25.05.05,0,0,0-.07,0c-.08,0-.29.29-.63.83a10.32,10.32,0,0,0-.9,1.79,4.49,4.49,0,0,0-.35,1.79l-.08.2.06.29a1,1,0,0,0,0,.48,1.73,1.73,0,0,0,.69,1,11,11,0,0,0,2.19,1.19A39.65,39.65,0,0,1,192.32,70a4.73,4.73,0,0,1,1.55,1.5,4.4,4.4,0,0,1,.9,1.78,3.44,3.44,0,0,1-1.47,3.5,12.66,12.66,0,0,1-5.47,2.21A7.92,7.92,0,0,1,184.8,78.93Z"/><path d="M242.57,65.34a3.48,3.48,0,0,1-1.8-.13,2.24,2.24,0,0,1-1.34-1.2q-.09-.17-.72-1a5.29,5.29,0,0,1-.88-2.09,4.53,4.53,0,0,1-.1-.84l-.07-1.88a5.5,5.5,0,0,1,0-1.4l-.1-.53c-.14-.67-.26-1-.38-1-.31.06-1,.95-2,2.66a37.66,37.66,0,0,0-2.53,5,9.16,9.16,0,0,0-.61,1.74,4.13,4.13,0,0,1-.4,1.21.94.94,0,0,1-.66.38,2.52,2.52,0,0,1-1.24-.12,2.27,2.27,0,0,1-1.12-.7,1.19,1.19,0,0,0-.56-.34.88.88,0,0,1-.51-.73,12.74,12.74,0,0,1,.11-3.45q.27-2.07.42-3.57c.11-1,.17-1.66.19-2s-.9.63-2.52,2.7q-2.49,4.41-4.35,8.32a23.85,23.85,0,0,1-1.45,2.83c-.38.59-.74.91-1.09,1a1.27,1.27,0,0,1-1-.35,4.63,4.63,0,0,0-.91-.43c-.42-.16-.65-.32-.68-.48-.06-.32-.19-.45-.39-.41-.28-.19-.13-1.56.45-4.1A40.28,40.28,0,0,1,218,58.46a1.08,1.08,0,0,0,.26-.57c0-.23,0-.34-.07-.32a6.62,6.62,0,0,0,.24-.66,5.52,5.52,0,0,1,.33-.8,5.64,5.64,0,0,0,.21-3.28.54.54,0,0,0-.54-.08,1,1,0,0,0-.3.18,3.69,3.69,0,0,1-.58.33,3.38,3.38,0,0,0-.77.55A4.81,4.81,0,0,1,215,55.14c-.43.08-.94-.3-1.52-1.17a3.38,3.38,0,0,1-.37-1,1.51,1.51,0,0,1,.24-1.27,8.77,8.77,0,0,1,1.06-1.13,6.51,6.51,0,0,0,.76-.77c.39-.32.9-.69,1.52-1.12s1.11-.74,1.44-.93a4.77,4.77,0,0,1,1.37-.52,2.9,2.9,0,0,1,3.14,1.34,3.36,3.36,0,0,1,1.24,2,7.24,7.24,0,0,1-.28,2.92l-.41,1a1.36,1.36,0,0,0-.08.51c0,.08,0,.11.08.11s.31-.21.45-.52.36-.53.62-.89.44-.54.56-.57A.43.43,0,0,0,225,53a.66.66,0,0,0,0-.47l.48-.64a1.72,1.72,0,0,0,.58-.45q.4-.42,1.11-1.23a2.09,2.09,0,0,1,1.08-.71,2,2,0,0,1,.52-.16,2.12,2.12,0,0,1,2.06.84,6.25,6.25,0,0,1,1.32,3l-.61,3.42,1.61-3a11.8,11.8,0,0,1,1.13-1.69.69.69,0,0,1,.24-.51.83.83,0,0,1,.25-.14.38.38,0,0,0,.13-.09.18.18,0,0,0,.05-.19c.14-.15.31-.34.54-.57a2.11,2.11,0,0,0,.41-.54,3.55,3.55,0,0,1,1.36-.51,4.12,4.12,0,0,1,1.85,0,2.65,2.65,0,0,1,1.47,1c.16.18.38.41.66.7a4.36,4.36,0,0,1,.66.85,3.73,3.73,0,0,1,.36,1.06l0,1.34s0,.64.1,2.06a5.39,5.39,0,0,0,.1,2.06,4.11,4.11,0,0,0,.3,1,.45.45,0,0,0,.49.15,4.38,4.38,0,0,0,1.22-.8,9.25,9.25,0,0,0,1.11-1.32,1.48,1.48,0,0,1,.85-.66,1.2,1.2,0,0,1,1,.26,2.87,2.87,0,0,1,.77.92c.16.21.08.88-.25,2s-.63,1.71-.9,1.77c-.08,0-.27.2-.56.57s-.55.65-.75.85c-.52.88-1,1.36-1.43,1.44a2.58,2.58,0,0,0-.59.27,2,2,0,0,1-.64.29A1.94,1.94,0,0,1,242.57,65.34Z"/><path d="M254.08,62.94A7.06,7.06,0,0,1,251,58a28.65,28.65,0,0,1-.42-3,14.22,14.22,0,0,1,.38-4.11,22,22,0,0,1,1.87-5.38,11.34,11.34,0,0,1,3.52-4.31A12,12,0,0,1,258,40a7.32,7.32,0,0,1,1.73-.56,7.8,7.8,0,0,1,4.09.11,5.63,5.63,0,0,1,2.51,1.58,4.31,4.31,0,0,1,1,1.82l.06.3,0,.17a8.37,8.37,0,0,1-.31,2.75,10.81,10.81,0,0,1-1.92,4.06A7.49,7.49,0,0,1,261,53a14.81,14.81,0,0,1-2.79.27,11.9,11.9,0,0,0-1.73.07q-.88.18-1,.87a7.33,7.33,0,0,0,.2,2.22A3.49,3.49,0,0,0,257,58.56a3.21,3.21,0,0,0,2.27.22,4.23,4.23,0,0,0,1.57-.74,14.75,14.75,0,0,0,1.94-1.91,9.27,9.27,0,0,1,1-1.05,2,2,0,0,1,1-.43,2,2,0,0,1,1.38.46,2.35,2.35,0,0,1,1,1.2,5.51,5.51,0,0,1-.87,2.38,12,12,0,0,1-2.56,3.13,8.53,8.53,0,0,1-9.63,1.12Zm6.52-14.32a9.38,9.38,0,0,0,1.5-1.86,4.34,4.34,0,0,0,.93-1.93,1.21,1.21,0,0,0-.69-.87,3,3,0,0,0-1.48-.23l-.65.13c-.51.1-1.16.67-2,1.7A14.46,14.46,0,0,0,256.33,49c.08.19.4.3,1,.33a7.1,7.1,0,0,0,1.81-.15A3.4,3.4,0,0,0,260.6,48.62Z"/><path d="M296,42.19c-2.88,2.08-.26,6.86,2.85,4.86A72.68,72.68,0,0,1,333,36c6.3-.39,14.3,1.07,16.15,8.19,1.52,5.86-.7,13.06-2.29,18.71-6.13,21.85-20,41-24.71,63.32-.81,3.79,4.66,5.34,5.83,1.6C332.26,114,338.2,101.15,344.05,88c5.26-11.84,10.36-24.29,11.43-37.34C358.11,18.28,311,31.34,296,42.19Z"/><path d="M349.4,112.79c-6.9,5.34-13.51,11.1-20,17-3,2.73-6.22,5.46-9.2,8.39.73-13.95-2.75-28-5.89-41.52-.85-3.65-6.26-2.08-5.57,1.54,3.09,16.31,7.61,32.49,4.07,49.12a3.09,3.09,0,0,0,5.61,2.37c4.18-6.5,11-11.72,16.66-16.86,6-5.43,12.26-10.6,18.46-15.83C356.52,114.47,352.33,110.53,349.4,112.79Z"/></svg>